/* XPM */
static char * xterm_linux_xpm[] = {
"64 38 8 1",
" 	c #A8A8A8",
".	c #000000",
"+	c #B3B3B3",
"@	c #D9D9D9",
"#	c #7F7F7F",
"$	c #FFFFFF",
"%	c #556B2F",
"&	c #FFFF00",
"              ......                                            ",
"             ........                                           ",
"            ..........    +++++++++++++++++++++++++++           ",
"            ...........  +@@@@@@@@@@@@@@@@@@@@@@@@@@@+          ",
"            ........... +@@@@@@@@@@@@@@@@@@@@@@@@@@@@@##        ",
"            .$$$.$$$... +@@%%%%%%%%%%%%%%%%%%%%%%%@@@@##        ",
"            .$.$.$.$... +@@%%%%%%%%%%%%%%%%%%%%%%%%@@@###       ",
"            .$.....$... +@@%%$$%$%%$%$$$$%%$%%%%%%%@@@###       ",
"            ...&&&......+@@%%%%%%%%%%%%%%%%%%%%%%%%@@@####      ",
"            ..&&&&&&....+@@%%$$$$%$$%$$$%%%%%%%%%%%@@@####      ",
"            .&.&&&.&....+@@%%%%%%%%%%%%%%%%%%%%%%%%@@@#####     ",
"            ..&...&&....+@@%%$$$$$$$$$$%$$$$$%%%%%%@@@#####     ",
"            ...&&&&$.....@@%%%%%%%%%%%%%%%%%%%%%%%%@@@#####     ",
"           ..$...$$$$....@@%%$$$%$$$$%$$%%$$$%%%%%%@@@#####     ",
"           .$$$$$$$$$$....@%%%%%%%%%%%%%%%%%%%%%%%%@@@#####     ",
"          ..$$$$$$$$$$.....%%$%%%%%%%%%%%%%%%%%%%%%@@@#####     ",
"         ...$$$$$$$$$$......%%%%%%%%%%%%%%%%%%%%%%%@@@#####     ",
"        ....$$$$$$$$$$$.....%$$$$%$%$$$%$%%%%%%%%%%@@@#####     ",
"        ...$$$$$$$$$$$$......%%%%%%%%%%%%%%%%%%%%%%@@@#####     ",
"        ..$$$$$$$$$$$$$$.....$%$$$$%%%%%%%%%%%%%%%%@@@#####     ",
"       ...$$$$$$$$$$$$$$......%%%%%%%%%%%%%%%%%%%%@@@@####      ",
"       ...$$$$$$$$$$$$$$......@@@@@@@@@@@@@@@@@@@@@@@@###       ",
"      ...$$$$$$$$$$$$$$$......@@@@@@@@@@@@@@@@@@@@@@@###        ",
"      ...$$$$$$$$$$$$$$$$.....#######################+++##      ",
"      ...$$$$$$$$$$$$$$$......+++++++++++++++++++++++++###      ",
"     .&&..$$$$$$$$$$$$$.......############################      ",
"     .&&&..$$$$$$$$$$$.&&....&.@@@@@@@@@@@@@@@@@@@@@@@####++ ++ ",
"  ...&&&&&..$$$$$$$$$$.&&&.&&&.@@@@@@@@@@@@@@.......@@####  +  +",
" .&&&&&&&&...$$$$$$$$$.&&&&&&&.####################@@@###     + ",
" .&&&&&&&&&...$$$$$$$$$.&&&&&&&..@@@@@@@@@@@@@@@@@#####      +  ",
"  .&&&&&&&&&.$$$$$$$$...&&&&&&&&&.@@@@@@@@@@@@@@@##      ###### ",
"  .&&&&&&&&&.$$$$$$$....&&&&&&&&.$$$$$$$$$$$@@@@@##   #####+++# ",
" .&&&&&&&&&&&...........&&&&&&..@@@@@@@@@@@@@@@@##   ##@@@##++# ",
"  ..&&&&&&&&&...........&&&&..$$$$$$$$$$$$$@@@@##    #@@@@@++#  ",
"     ...&&&&...    #@@..&&&.@@@@@@@@@@@@@@@@@@##     #+++++##   ",
"         ....      ####....####################      #######    ",
"                                                                ",
"                                                                "};
